<?xml version="1.0" encoding="utf-8"?>
<!-- Generator: Adobe Illustrator 25.0.1, SVG Export Plug-In . SVG Version: 6.00 Build 0)  -->
<svg version="1.0" id="katman_1" xmlns="http://www.w3.org/2000/svg" xmlns:xlink="http://www.w3.org/1999/xlink" x="0px" y="0px"
	 viewBox="0 0 186.3 117.9" style="enable-background:new 0 0 186.3 117.9;" xml:space="preserve">
<style type="text/css">
	.st0{fill-rule:evenodd;clip-rule:evenodd;fill:#633001;}
	.st1{fill:#FEDC90;}
	.st2{fill-rule:evenodd;clip-rule:evenodd;fill:#D1884F;}
	.st3{fill:#633001;}
</style>
<path d="M44,65.7c-0.4,0-0.6-0.1-0.8-0.2c-0.1-0.2-0.2-0.4-0.2-0.7V53.6c0-0.3,0.1-0.6,0.2-0.7c0.2-0.2,0.4-0.3,0.8-0.3h4.7
	c1.8,0,3.1,0.4,4,1.1c0.8,0.8,1.3,1.9,1.3,3.4c0,1.5-0.4,2.6-1.3,3.4c-0.8,0.7-2.2,1.1-4,1.1h-1.8v3.1c0,0.3-0.1,0.6-0.2,0.7
	c-0.2,0.2-0.4,0.2-0.8,0.2H44z M48.4,58.8c0.5,0,0.9-0.1,1.2-0.4c0.3-0.3,0.4-0.7,0.4-1.3c0-0.6-0.1-1-0.4-1.3
	c-0.3-0.3-0.7-0.4-1.2-0.4h-1.5v3.4H48.4z"/>
<path d="M58.5,66c-1.2,0-2.2-0.4-2.9-1.2c-0.7-0.8-1.1-1.9-1.1-3.3c0-1.1,0.2-2,0.7-2.8c0.5-0.8,1.2-1.4,2.1-1.9
	c0.9-0.4,2-0.7,3.1-0.7c1,0,1.8,0.1,2.6,0.3c0.8,0.2,1.4,0.5,2.1,0.9v7.7c0,0.2,0,0.4-0.1,0.5c-0.1,0.1-0.3,0.1-0.5,0.1h-2
	c-0.1,0-0.3,0-0.3-0.1c-0.1-0.1-0.1-0.1-0.2-0.2l-0.3-0.6c-0.4,0.4-0.8,0.7-1.3,0.9C59.9,65.9,59.2,66,58.5,66z M59.9,63.4
	c0.5,0,0.9-0.1,1.2-0.4c0.3-0.2,0.4-0.6,0.4-1v-3c-0.2-0.1-0.6-0.2-0.9-0.2c-0.7,0-1.2,0.2-1.6,0.7c-0.4,0.5-0.6,1.1-0.6,2
	C58.4,62.7,58.9,63.4,59.9,63.4z"/>
<path d="M67.8,65.7c-0.4,0-0.6-0.1-0.8-0.2c-0.2-0.2-0.2-0.4-0.2-0.7V57c0-0.2,0-0.4,0.1-0.5c0.1-0.1,0.3-0.1,0.5-0.1h2
	c0.2,0,0.3,0,0.3,0.1c0.1,0,0.1,0.1,0.2,0.2l0.1,0.6c0.4-0.4,0.8-0.6,1.4-0.8c0.6-0.2,1.2-0.3,2-0.3c1,0,1.9,0.3,2.5,0.9
	c0.6,0.6,1,1.4,1,2.6v5.1c0,0.3-0.1,0.6-0.2,0.7c-0.1,0.2-0.4,0.2-0.8,0.2H74c-0.4,0-0.6-0.1-0.8-0.2c-0.2-0.2-0.2-0.4-0.2-0.7v-4.9
	c0-0.4-0.1-0.7-0.3-0.8c-0.2-0.2-0.4-0.3-0.8-0.3c-0.4,0-0.7,0.1-0.9,0.3c-0.2,0.2-0.3,0.5-0.3,0.8v4.8c0,0.3-0.1,0.6-0.2,0.7
	c-0.1,0.2-0.4,0.2-0.8,0.2H67.8z"/>
<path d="M83.7,66c-1.8,0-3.2-0.4-4.2-1.3c-1-0.8-1.5-2-1.5-3.6c0-1,0.2-1.8,0.7-2.6c0.4-0.7,1.1-1.3,1.9-1.7c0.9-0.4,1.9-0.6,3-0.6
	c0.9,0,1.6,0.1,2.2,0.3c0.6,0.2,1.2,0.4,1.6,0.8c0.1,0.1,0.2,0.2,0.2,0.3c0,0.1-0.1,0.2-0.2,0.4l-0.8,1.4c-0.1,0.2-0.2,0.3-0.3,0.3
	c-0.1,0-0.2-0.1-0.4-0.2c-0.3-0.2-0.7-0.4-1-0.5c-0.3-0.1-0.7-0.2-1.1-0.2c-0.6,0-1.2,0.2-1.6,0.6c-0.4,0.4-0.6,1-0.6,1.7
	c0,0.7,0.2,1.3,0.6,1.7c0.4,0.4,0.9,0.6,1.6,0.6c0.4,0,0.8-0.1,1.1-0.2c0.3-0.1,0.7-0.3,1-0.5c0.2-0.1,0.3-0.2,0.4-0.2
	c0.1,0,0.2,0.1,0.3,0.3l0.9,1.5c0.1,0.1,0.1,0.2,0.1,0.3c0,0.1-0.1,0.2-0.2,0.3c-0.5,0.3-1.1,0.6-1.8,0.8C85.3,65.9,84.6,66,83.7,66
	z"/>
<path d="M92.8,66c-1.2,0-2.2-0.4-2.9-1.2c-0.7-0.8-1.1-1.9-1.1-3.3c0-1.1,0.2-2,0.7-2.8c0.5-0.8,1.2-1.4,2.1-1.9
	c0.9-0.4,2-0.7,3.1-0.7c1,0,1.8,0.1,2.6,0.3c0.8,0.2,1.4,0.5,2.1,0.9v7.7c0,0.2,0,0.4-0.1,0.5c-0.1,0.1-0.3,0.1-0.5,0.1h-2
	c-0.1,0-0.3,0-0.3-0.1c-0.1-0.1-0.1-0.1-0.2-0.2l-0.3-0.6c-0.4,0.4-0.8,0.7-1.3,0.9C94.2,65.9,93.6,66,92.8,66z M94.3,63.4
	c0.5,0,0.9-0.1,1.2-0.4c0.3-0.2,0.4-0.6,0.4-1v-3c-0.2-0.1-0.6-0.2-0.9-0.2c-0.7,0-1.2,0.2-1.6,0.7c-0.4,0.5-0.6,1.1-0.6,2
	C92.7,62.7,93.2,63.4,94.3,63.4z"/>
<path d="M111.6,65c0.1,0.1,0.1,0.2,0.1,0.3c0,0.1,0,0.2-0.1,0.3c-0.1,0.1-0.2,0.1-0.3,0.1h-3c-0.2,0-0.3,0-0.4,0
	c-0.1,0-0.2-0.1-0.3-0.2l-2.6-3.6v2.8c0,0.3-0.1,0.6-0.2,0.7c-0.2,0.2-0.4,0.2-0.8,0.2h-1.9c-0.4,0-0.6-0.1-0.8-0.2
	c-0.1-0.2-0.2-0.4-0.2-0.7V53.6c0-0.3,0.1-0.6,0.2-0.7c0.2-0.2,0.4-0.3,0.8-0.3h1.9c0.4,0,0.6,0.1,0.8,0.3c0.2,0.2,0.2,0.4,0.2,0.7
	V60l2.5-3.3c0.1-0.1,0.2-0.2,0.3-0.2c0.1,0,0.2-0.1,0.4-0.1h3c0.1,0,0.2,0,0.3,0.1c0.1,0.1,0.1,0.2,0.1,0.3c0,0.1,0,0.2-0.1,0.3
	l-3.3,3.8L111.6,65z"/>
<path d="M117.8,66c-1.1,0-2-0.2-2.9-0.5c-0.8-0.4-1.5-0.9-2-1.6c-0.5-0.7-0.7-1.6-0.7-2.6c0-1.6,0.5-2.9,1.4-3.7
	c0.9-0.9,2.3-1.3,4-1.3c1.7,0,3,0.4,3.8,1.3c0.9,0.8,1.3,2,1.3,3.5c0,0.6-0.3,1-0.8,1h-6c0,0.6,0.2,1,0.6,1.3
	c0.4,0.3,1.1,0.4,1.9,0.4c0.5,0,1,0,1.3-0.1c0.4-0.1,0.7-0.3,1.1-0.4c0.2-0.1,0.3-0.1,0.3-0.1c0.1,0,0.2,0.1,0.3,0.2l0.7,1.2
	c0.1,0.1,0.1,0.2,0.1,0.3c0,0.1-0.1,0.2-0.2,0.3c-0.5,0.3-1.1,0.6-1.8,0.8C119.4,65.9,118.7,66,117.8,66z M119.3,60
	c0-0.5-0.1-0.9-0.4-1.1c-0.3-0.3-0.7-0.4-1.3-0.4c-0.6,0-1,0.1-1.3,0.4c-0.3,0.3-0.4,0.6-0.4,1.1H119.3z"/>
<path d="M129.4,66c-1.1,0-2.1-0.1-3.1-0.3c-1-0.2-1.7-0.6-2.3-1c-0.2-0.1-0.3-0.3-0.3-0.4c0-0.1,0-0.2,0.1-0.3l0.9-1.5
	c0.1-0.2,0.2-0.2,0.3-0.2c0.1,0,0.2,0,0.3,0.1c0.5,0.3,1,0.5,1.6,0.7c0.6,0.2,1.2,0.3,1.8,0.3c0.6,0,1-0.1,1.3-0.3
	c0.3-0.2,0.4-0.5,0.4-0.9c0-0.4-0.2-0.7-0.5-0.9c-0.3-0.2-0.9-0.5-1.8-0.8c-1.3-0.5-2.3-1-3-1.6c-0.7-0.6-1.1-1.5-1.1-2.5
	c0-1.3,0.5-2.2,1.4-2.9c0.9-0.7,2.1-1,3.6-1c1.1,0,2,0.1,2.7,0.3c0.8,0.2,1.4,0.5,1.9,0.8c0.2,0.2,0.3,0.3,0.3,0.5
	c0,0.1,0,0.2-0.1,0.3l-0.9,1.5c-0.1,0.2-0.2,0.2-0.3,0.2c-0.1,0-0.2,0-0.3-0.1c-0.7-0.5-1.6-0.7-2.7-0.7c-0.6,0-1,0.1-1.3,0.3
	c-0.3,0.2-0.4,0.5-0.4,0.9c0,0.3,0.1,0.5,0.2,0.7c0.2,0.2,0.4,0.3,0.6,0.5c0.3,0.1,0.7,0.3,1.2,0.5l0.4,0.1c0.9,0.4,1.7,0.7,2.2,1.1
	c0.6,0.3,1,0.8,1.3,1.3c0.3,0.5,0.4,1.1,0.4,1.8c0,1.1-0.4,2.1-1.3,2.7C132.3,65.6,131,66,129.4,66z"/>
<path d="M138.5,65.7c-0.2,0-0.3,0-0.4-0.1c-0.1-0.1-0.2-0.2-0.2-0.4l-2.5-8.3c0-0.1,0-0.1,0-0.2c0-0.2,0.1-0.3,0.4-0.3h2.5
	c0.2,0,0.3,0,0.4,0.1c0.1,0.1,0.1,0.1,0.2,0.3l1,4.4l1.3-3.5c0.1-0.2,0.1-0.3,0.2-0.3c0.1-0.1,0.2-0.1,0.4-0.1h1.2
	c0.2,0,0.3,0,0.4,0.1c0.1,0.1,0.1,0.2,0.2,0.3l1.3,3.5l1.1-4.4c0-0.1,0.1-0.2,0.2-0.3c0.1-0.1,0.2-0.1,0.3-0.1h2.6
	c0.3,0,0.4,0.1,0.4,0.3c0,0,0,0.1,0,0.2l-2.5,8.3c-0.1,0.2-0.1,0.3-0.2,0.4c-0.1,0.1-0.2,0.1-0.4,0.1h-1.9c-0.2,0-0.3,0-0.4-0.1
	c-0.1-0.1-0.2-0.2-0.2-0.4l-1.3-3.5l-1.3,3.5c-0.1,0.2-0.1,0.3-0.2,0.4c-0.1,0.1-0.2,0.1-0.4,0.1H138.5z"/>
<path d="M154.1,66c-1.2,0-2.2-0.4-2.9-1.2c-0.7-0.8-1.1-1.9-1.1-3.3c0-1.1,0.2-2,0.7-2.8c0.5-0.8,1.2-1.4,2.1-1.9
	c0.9-0.4,2-0.7,3.1-0.7c1,0,1.8,0.1,2.6,0.3c0.8,0.2,1.4,0.5,2.1,0.9v7.7c0,0.2,0,0.4-0.1,0.5c-0.1,0.1-0.3,0.1-0.5,0.1h-2
	c-0.1,0-0.2,0-0.3-0.1c-0.1-0.1-0.1-0.1-0.2-0.2l-0.3-0.6c-0.4,0.4-0.8,0.7-1.3,0.9C155.5,65.9,154.9,66,154.1,66z M155.6,63.4
	c0.5,0,0.9-0.1,1.2-0.4c0.3-0.2,0.4-0.6,0.4-1v-3c-0.2-0.1-0.6-0.2-0.9-0.2c-0.7,0-1.2,0.2-1.6,0.7c-0.4,0.5-0.6,1.1-0.6,2
	C154,62.7,154.5,63.4,155.6,63.4z"/>
<path d="M163.4,69.6c-0.4,0-0.6-0.1-0.8-0.2c-0.1-0.2-0.2-0.4-0.2-0.7v-11c0.6-0.4,1.3-0.8,2.2-1c0.9-0.3,1.8-0.4,2.7-0.4
	c3.9,0,5.8,1.6,5.8,4.9c0,1.5-0.4,2.7-1.2,3.6c-0.8,0.9-2,1.3-3.5,1.3c-0.4,0-0.8-0.1-1.2-0.2c-0.4-0.1-0.7-0.2-1-0.4v3.2
	c0,0.3-0.1,0.6-0.2,0.7c-0.2,0.2-0.4,0.2-0.8,0.2H163.4z M167.6,63.4c0.6,0,1-0.2,1.2-0.6c0.3-0.4,0.4-1,0.4-1.7
	c0-0.8-0.2-1.4-0.5-1.8c-0.3-0.3-0.8-0.5-1.5-0.5c-0.4,0-0.8,0.1-1,0.2V62c0,0.4,0.1,0.8,0.4,1C166.8,63.3,167.2,63.4,167.6,63.4z"
	/>
<path class="st0" d="M17.5,50.4c-0.4-2,1.2-3.9,3.2-3.9c1.8,0,3.3,1.5,3.3,3.3v4c0.5,0,0.9,0,1.4,0c0.4,0,0.9,0,1.3,0v-4
	c0-1.8,1.5-3.3,3.3-3.3c2,0,3.6,1.9,3.2,3.9l-0.9,4.7c3,1.3,5.3,3.6,5.3,6.5v1.7c0,2.4-1.6,4.4-3.8,5.7c-2.2,1.4-5.2,2.2-8.5,2.2
	c-3.3,0-6.3-0.8-8.5-2.2c-2.2-1.3-3.8-3.3-3.8-5.7v-1.7c0-2.9,2.3-5.2,5.3-6.5L17.5,50.4z M31.2,55.8l1-5.5c0.3-1.4-0.8-2.7-2.2-2.7
	c-1.3,0-2.3,1-2.3,2.3V55c-0.3,0-0.7-0.1-1-0.1c-0.4,0-0.9,0-1.3,0c-0.5,0-0.9,0-1.4,0.1c-0.3,0-0.7,0.1-1,0.1v-5.1
	c0-1.3-1-2.3-2.3-2.3c-1.4,0-2.5,1.3-2.2,2.7l1,5.6c-3.2,1.2-5.4,3.4-5.4,5.9v1.7c0,3.8,5,6.9,11.2,6.9c6.2,0,11.2-3.1,11.2-6.9
	v-1.7C36.6,59.2,34.4,57,31.2,55.8z"/>
<path class="st1" d="M36.6,63.4c0,3.8-5,6.9-11.2,6.9c-6.2,0-11.2-3.1-11.2-6.9v-1.7h22.5V63.4z"/>
<path class="st2" d="M18.5,50.2c-0.3-1.4,0.8-2.7,2.2-2.7c1.3,0,2.3,1,2.3,2.3V55c0.8-0.1,1.6-0.2,2.4-0.2c0.8,0,1.6,0.1,2.3,0.1
	v-5.1c0-1.3,1-2.3,2.3-2.3c1.4,0,2.5,1.3,2.2,2.7l-1,5.5c3.3,1.2,5.5,3.4,5.5,5.9c0,3.8-5,6.9-11.2,6.9c-6.2,0-11.2-3.1-11.2-6.9
	c0-2.5,2.2-4.7,5.4-5.9L18.5,50.2z"/>
<path class="st3" d="M22.3,61.2c0,1-0.6,1.9-1.2,1.9s-1.2-0.8-1.2-1.9c0-1,0.6-1.9,1.2-1.9S22.3,60.1,22.3,61.2z"/>
<path class="st3" d="M30.9,61.2c0,1-0.6,1.9-1.2,1.9c-0.7,0-1.2-0.8-1.2-1.9c0-1,0.6-1.9,1.2-1.9C30.3,59.3,30.9,60.1,30.9,61.2z"/>
</svg>
